Coordinates
version=1
nRows=8
nColumns=40
inDegrees=yes

Units are S.I. units (second, meters, Newtons, ...)
If the header above contains a line with 'inDegrees', this indicates whether rotational values are in degrees (yes) or radians (no).

endheader
time	pelvis_tilt	pelvis_list	pelvis_rotation	pelvis_tx	pelvis_ty	pelvis_tz	hip_flexion_r	hip_adduction_r	hip_rotation_r	knee_angle_r	knee_angle_r_beta	ankle_angle_r	subtalar_angle_r	mtp_angle_r	hip_flexion_l	hip_adduction_l	hip_rotation_l	knee_angle_l	knee_angle_l_beta	ankle_angle_l	subtalar_angle_l	mtp_angle_l	lumbar_extension	lumbar_bending	lumbar_rotation	arm_flex_r	arm_add_r	arm_rot_r	elbow_flex_r	pro_sup_r	wrist_flex_r	wrist_dev_r	arm_flex_l	arm_add_l	arm_rot_l	elbow_flex_l	pro_sup_l	wrist_flex_l	wrist_dev_l
      2.65500000	      7.84634799	     -6.15073239	      2.58157356	      0.15247932	      0.45103839	     -1.23243461	     80.03912504	    -48.35038463	     18.21477861	    121.73606302	      2.12469512	     35.41514240	     17.74170739	      0.00000000	     96.07419248	    -42.54720545	     34.76793058	    124.83362170	      2.17875772	     35.68649348	     21.16438334	      0.00000000	      0.00000000	      0.00000000	      0.00000000	     44.99992434	    -14.99999999	     44.99992434	     75.00017585	     45.00000026	      0.00000000	      0.00000000	     44.99992434	    -14.99999999	     44.99992434	     75.00017585	     45.00000026	      0.00000000	      0.00000000
      2.66000000	      7.54810038	     -6.21941602	      2.59031066	      0.15214882	      0.45225404	     -1.23247590	     80.02826564	    -48.31493203	     17.81499881	    121.52241834	      2.12096631	     35.27758405	     17.59684549	      0.00000000	     96.23970683	    -42.47646309	     34.59331991	    124.62233470	      2.17507006	     35.51002296	     21.00972685	      0.00000000	      0.00000000	      0.00000000	      0.00000000	     44.99992434	    -14.99999999	     44.99992434	     75.00017585	     45.00000026	      0.00000000	      0.00000000	     44.99992434	    -14.99999999	     44.99992434	     75.00017585	     45.00000026	      0.00000000	      0.00000000
      2.66500000	      7.18340002	     -6.14976368	      2.55156244	      0.15187074	      0.45337037	     -1.23226572	     80.32198171	    -48.26751132	     17.68309565	    121.34146951	      2.11780816	     35.11096890	     17.41065018	      0.00000000	     96.31807063	    -42.46557300	     34.21954098	    124.39525918	      2.17110685	     35.33468423	     20.86421122	      0.00000000	      0.00000000	      0.00000000	      0.00000000	     44.99992434	    -14.99999999	     44.99992434	     75.00017585	     45.00000026	      0.00000000	      0.00000000	     44.99992434	    -14.99999999	     44.99992434	     75.00017585	     45.00000026	      0.00000000	      0.00000000
      2.67000000	      6.83085207	     -6.13709369	      2.52617476	      0.15157523	      0.45460953	     -1.23213772	     80.49466918	    -48.21723957	     17.42176012	    121.13596110	      2.11422136	     34.95028282	     17.20313809	      0.00000000	     96.43718213	    -42.44237589	     33.91692309	    124.15834984	      2.16697200	     35.15479729	     20.71234895	      0.00000000	      0.00000000	      0.00000000	      0.00000000	     44.99992434	    -14.99999999	     44.99992434	     75.00017585	     45.00000026	      0.00000000	      0.00000000	     44.99992434	    -14.99999999	     44.99992434	     75.00017585	     45.00000026	      0.00000000	      0.00000000
      2.67500000	      6.48248552	     -6.11590339	      2.53428581	      0.15127380	      0.45598622	     -1.23206510	     80.62664108	    -48.19906873	     17.14599511	    120.91283494	      2.11032708	     34.80164186	     17.05049235	      0.00000000	     96.50762852	    -42.38781462	     33.57279016	    123.90515660	      2.16255294	     34.95816349	     20.56865621	      0.00000000	      0.00000000	      0.00000000	      0.00000000	     44.99992434	    -14.99999999	     44.99992434	     75.00017585	     45.00000026	      0.00000000	      0.00000000	     44.99992434	    -14.99999999	     44.99992434	     75.00017585	     45.00000026	      0.00000000	      0.00000000
      2.68000000	      6.15414810	     -6.13067809	      2.50216672	      0.15095379	      0.45755516	     -1.23192479	     80.66068597	    -48.13245801	     16.77252612	    120.65692292	      2.10586057	     34.64652641	     16.86005268	      0.00000000	     96.58282227	    -42.38932618	     33.27712108	    123.62577619	      2.15767683	     34.80401771	     20.41002632	      0.00000000	      0.00000000	      0.00000000	      0.00000000	     44.99992434	    -14.99999999	     44.99992434	     75.00017585	     45.00000026	      0.00000000	      0.00000000	     44.99992434	    -14.99999999	     44.99992434	     75.00017585	     45.00000026	      0.00000000	      0.00000000
      2.68500000	      5.78908949	     -6.08712280	      2.49672322	      0.15061957	      0.45905157	     -1.23181175	     80.82947260	    -48.10023588	     16.51939427	    120.41488936	      2.10163629	     34.48357354	     16.68974654	      0.00000000	     96.61711550	    -42.34370351	     32.88008127	    123.35078968	      2.15287741	     34.62358269	     20.26034102	      0.00000000	      0.00000000	      0.00000000	      0.00000000	     44.99992434	    -14.99999999	     44.99992434	     75.00017585	     45.00000026	      0.00000000	      0.00000000	     44.99992434	    -14.99999999	     44.99992434	     75.00017585	     45.00000026	      0.00000000	      0.00000000
      2.69000000	      5.47252065	     -6.07804956	      2.43320856	      0.15026818	      0.46083815	     -1.23158194	     80.85499244	    -47.99142740	     16.14879799	    120.14445958	      2.09691640	     34.32372217	     16.40282074	      0.00000000	     96.63161818	    -42.40178515	     32.52403463	    123.03893994	      2.14743461	     34.41500499	     20.13042150	      0.00000000	      0.00000000	      0.00000000	      0.00000000	     44.99992434	    -14.99999999	     44.99992434	     75.00017585	     45.00000026	      0.00000000	      0.00000000	     44.99992434	    -14.99999999	     44.99992434	     75.00017585	     45.00000026	      0.00000000	      0.00000000
